HIERARCHY
ROOT Model_Hips
{
	OFFSET 0.000000 96.915077 0.000000
	CHANNELS 6 Xposition Yposition Zposition Xrotation Yrotation Zrotation
	JOINT Model_Spine
	{
		OFFSET 0.000000 11.137703 -1.289900
		CHANNELS 3 Xrotation Yrotation Zrotation
		JOINT Model_Spine1
		{
			OFFSET 0.000000 12.993942 -1.504922
			CHANNELS 3 Xrotation Yrotation Zrotation
			JOINT Model_Spine2
			{
				OFFSET 0.000000 14.850220 -1.719911
				CHANNELS 3 Xrotation Yrotation Zrotation
				JOINT Model_Neck
				{
					OFFSET 0.000000 16.706543 -1.934903
					CHANNELS 3 Xrotation Yrotation Zrotation
					JOINT Model_Head
					{
						OFFSET 0.000000 10.471298 2.002100
						CHANNELS 3 Xrotation Yrotation Zrotation
						JOINT Model_HeadTop_End
						{
							OFFSET 0.000000 20.842606 3.985100
							CHANNELS 3 Xrotation Yrotation Zrotation
							End Site
							{
								OFFSET 0.000000 21.220154 0.000000
							}
						}
					}
				}
				JOINT Model_LeftShoulder
				{
					OFFSET 7.008500 14.768600 -1.919946
					CHANNELS 3 Xrotation Yrotation Zrotation
					JOINT Model_LeftArm
					{
						OFFSET 14.126271 -3.718048 0.029937
						CHANNELS 3 Xrotation Yrotation Zrotation
						JOINT Model_LeftForeArm
						{
							OFFSET 28.282801 0.000000 0.000000
							CHANNELS 3 Xrotation Yrotation Zrotation
							JOINT Model_LeftHand
							{
								OFFSET 26.204689 0.000000 0.000000
								CHANNELS 3 Xrotation Yrotation Zrotation
								End Site
								{
									OFFSET 26.204704 0.000000 0.000000
								}
							}
						}
					}
				}
				JOINT Model_RightShoulder
				{
					OFFSET -7.008500 14.768555 -1.949840
					CHANNELS 3 Xrotation Yrotation Zrotation
					JOINT Model_RightArm
					{
						OFFSET -14.126281 -3.718018 -0.029932
						CHANNELS 3 Xrotation Yrotation Zrotation
						JOINT Model_RightForeArm
						{
							OFFSET -28.283798 0.000000 -0.000001
							CHANNELS 3 Xrotation Yrotation Zrotation
							JOINT Model_RightHand
							{
								OFFSET -26.204193 0.000000 -0.000001
								CHANNELS 3 Xrotation Yrotation Zrotation
								End Site
								{
									OFFSET -26.204208 0.000000 -0.000001
								}
							}
						}
					}
				}
			}
		}
	}
	JOINT Model_LeftUpLeg
	{
		OFFSET 8.327700 -6.193199 -0.402800
		CHANNELS 3 Xrotation Yrotation Zrotation
		JOINT Model_LeftLeg
		{
			OFFSET 0.735802 -42.108742 -0.610721
			CHANNELS 3 Xrotation Yrotation Zrotation
			JOINT Model_LeftFoot
			{
				OFFSET -0.735806 -36.833748 -0.172876
				CHANNELS 3 Xrotation Yrotation Zrotation
				JOINT Model_LeftToeBase
				{
					OFFSET -0.565857 -11.977769 16.297714
					CHANNELS 3 Xrotation Yrotation Zrotation
					JOINT Model_LeftToe_End
					{
						OFFSET -0.111712 -0.312793 7.857784
						CHANNELS 3 Xrotation Yrotation Zrotation
						End Site
						{
							OFFSET -0.111712 -0.312793 7.857784
						}
					}
				}
			}
		}
	}
	JOINT Model_RightUpLeg
	{
		OFFSET -8.327700 -6.193199 -0.516500
		CHANNELS 3 Xrotation Yrotation Zrotation
		JOINT Model_RightLeg
		{
			OFFSET -0.735785 -42.108738 -0.434061
			CHANNELS 3 Xrotation Yrotation Zrotation
			JOINT Model_RightFoot
			{
				OFFSET 0.735776 -36.833748 -0.021630
				CHANNELS 3 Xrotation Yrotation Zrotation
				JOINT Model_RightToeBase
				{
					OFFSET 0.565817 -11.977745 15.903093
					CHANNELS 3 Xrotation Yrotation Zrotation
					JOINT Model_RightToe_End
					{
						OFFSET 0.111702 -0.312791 7.811342
						CHANNELS 3 Xrotation Yrotation Zrotation
						End Site
						{
							OFFSET 0.111702 -0.312791 7.811342
						}
					}
				}
			}
		}
	}
}
MOTION
Frames: 13
Frame Time: 0.033333
0.191895 95.954277 0.742339 -1.521340 -0.108251 -1.075313 0.968056 -0.127227 0.023446 1.020917 -2.478266 0.146191 1.015813 -2.474655 0.189377 -2.750130 0.880339 -1.427500 -2.767889 0.838613 -1.453772 -0.000001 0.000000 0.000000 -0.356743 7.381304 -0.457863 2.460131 -24.543409 -70.534674 -0.000007 -29.295043 -0.000001 0.000001 0.000002 -0.000001 0.994796 2.418258 -3.714709 -2.712707 25.494579 74.914990 0.000017 27.096030 -0.000008 0.000002 -0.000000 0.000000 -8.179986 4.167462 2.367418 23.693004 9.330631 0.930190 -13.658808 2.818191 -3.727248 -0.464202 -0.000006 0.000001 0.000000 -0.000002 -0.000000 -8.559990 -13.510053 -6.065400 18.781704 -4.117475 -1.372705 -7.832805 -4.532835 6.660898 -0.000023 -0.000001 0.000003 0.000000 -0.000001 0.000000 
0.367165 95.921028 0.706975 -1.544275 -0.123670 -1.172631 1.005523 -0.112449 0.012887 1.090726 -2.458726 0.133614 1.086218 -2.455133 0.178234 -2.719650 0.858688 -1.378170 -2.737482 0.819222 -1.403371 -0.000000 -0.000000 0.000000 -0.347706 7.241600 -0.396602 2.381616 -24.672076 -70.607955 -0.000020 -29.273067 -0.000019 0.000001 -0.000000 0.000002 1.041307 2.663377 -3.569596 -2.709005 25.573038 74.800701 -0.000000 27.155931 -0.000008 0.000004 -0.000002 0.000000 -8.346787 4.211310 2.389312 24.062613 9.271788 0.877421 -13.868656 2.836648 -3.594630 -0.445753 0.000006 0.000002 0.000000 -0.000002 -0.000000 -8.601785 -13.609444 -6.085639 18.814694 -4.145827 -1.430213 -7.777967 -4.404855 6.797627 -0.000072 0.000004 0.000001 0.000000 -0.000001 0.000000 
0.536686 95.894684 0.694777 -1.570859 -0.128163 -1.261425 1.037729 -0.097420 0.000749 1.151906 -2.434550 0.118299 1.148082 -2.431011 0.164260 -2.666050 0.840116 -1.335075 -2.683946 0.802545 -1.359249 0.000000 0.000000 -0.000000 -0.343848 7.179708 -0.357217 2.339525 -24.712582 -70.632195 -0.000007 -29.243653 -0.000005 0.000001 -0.000002 0.000002 1.068255 2.809601 -3.498245 -2.721697 25.643804 74.798030 0.000006 27.188231 0.000017 0.000002 -0.000001 0.000001 -8.460614 4.252240 2.408225 24.363295 9.193797 0.815182 -14.057510 2.862790 -3.454015 -0.439518 -0.000004 0.000002 0.000000 -0.000001 -0.000000 -8.595375 -13.700710 -6.102228 18.795468 -4.194867 -1.488374 -7.713973 -4.277979 6.938191 -0.000008 0.000003 0.000001 -0.000000 -0.000001 0.000000 
0.686961 95.888657 0.746194 -1.615505 -0.104512 -1.320467 1.057174 -0.082894 -0.015624 1.192553 -2.399855 0.094675 1.189678 -2.396442 0.141880 -2.549396 0.833597 -1.319703 -2.567286 0.796499 -1.343181 0.000000 0.000000 0.000000 -0.341502 7.162172 -0.352770 2.331791 -24.700368 -70.601282 -0.000008 -29.208375 0.000003 -0.000001 0.000003 -0.000002 1.084345 2.895709 -3.468072 -2.733842 25.721844 74.861155 0.000002 27.212507 -0.000008 0.000001 0.000004 -0.000002 -8.415900 4.257136 2.411407 24.471349 9.085188 0.720432 -14.186350 2.914812 -3.295948 -0.454426 -0.000004 0.000004 0.000000 0.000001 0.000000 -8.449463 -13.757983 -6.112032 18.637406 -4.294103 -1.546956 -7.628337 -4.167850 7.087133 -0.000051 -0.000001 -0.000001 0.000000 -0.000002 0.000000 
0.825206 95.876274 0.798246 -1.670291 -0.073904 -1.369159 1.079166 -0.068834 -0.035497 1.237930 -2.367713 0.065950 1.236206 -2.364421 0.114639 -2.416233 0.829499 -1.312077 -2.434085 0.792535 -1.334912 -0.000000 -0.000000 0.000000 -0.338463 7.145451 -0.370193 2.353295 -24.630019 -70.536443 -0.000002 -29.165485 -0.000004 0.000002 0.000001 -0.000001 1.097098 2.953828 -3.452190 -2.725384 25.803203 74.953219 -0.000013 27.245471 0.000030 -0.000000 -0.000001 0.000001 -8.368776 4.154584 2.400627 24.612518 9.070141 0.608155 -14.328427 2.962833 -3.161073 -0.471303 0.000015 -0.000000 -0.000000 -0.000001 -0.000000 -8.327115 -13.798335 -6.132598 18.558003 -4.357179 -1.602441 -7.588503 -4.112269 7.226894 -0.000016 0.000008 -0.000003 -0.000000 -0.000002 0.000000 
0.952956 95.848175 0.848523 -1.728725 -0.034607 -1.420492 1.103081 -0.052467 -0.060378 1.286593 -2.333642 0.031636 1.286276 -2.330425 0.081938 -2.262190 0.820293 -1.291549 -2.280011 0.783873 -1.313528 -0.000000 -0.000000 -0.000000 -0.332881 7.063699 -0.368438 2.385417 -24.489023 -70.497442 0.000014 -29.113104 -0.000010 -0.000002 -0.000001 0.000000 1.117862 3.037354 -3.409952 -2.673129 25.866977 75.016774 -0.000003 27.305235 -0.000021 0.000001 -0.000001 -0.000002 -8.365761 3.921548 2.379381 24.865790 9.182137 0.493475 -14.521711 3.000958 -3.070709 -0.485178 -0.000006 -0.000000 -0.000000 -0.000001 -0.000000 -8.267908 -13.823640 -6.159060 18.628320 -4.377994 -1.656649 -7.629624 -4.118225 7.360343 -0.000018 0.000001 0.000004 -0.000000 0.000001 0.000000 
1.070818 95.800934 0.895121 -1.785263 0.011490 -1.483694 1.127917 -0.032140 -0.090379 1.336242 -2.295007 -0.007389 1.337577 -2.291763 0.044533 -2.085853 0.800376 -1.241524 -2.103726 0.765475 -1.262224 -0.000000 -0.000000 0.000000 -0.324227 6.865015 -0.299262 2.407604 -24.259447 -70.553826 -0.000004 -29.050331 -0.000010 0.000000 -0.000002 0.000001 1.156031 3.192948 -3.311238 -2.562822 25.882616 75.006098 0.000013 27.400894 -0.000002 -0.000003 -0.000000 -0.000001 -8.430600 3.595411 2.356137 25.258772 9.397219 0.394196 -14.779242 3.025700 -3.031734 -0.495433 -0.000002 -0.000003 0.000000 -0.000001 0.000000 -8.286579 -13.847664 -6.185467 18.864337 -4.362692 -1.711267 -7.758710 -4.165757 7.488384 -0.000011 -0.000023 0.000004 0.000000 -0.000001 0.000000 
1.178277 95.736984 0.937479 -1.837869 0.059368 -1.559092 1.152516 -0.008210 -0.123990 1.384387 -2.252733 -0.049029 1.387553 -2.249357 0.004434 -1.889847 0.768703 -1.157261 -1.907827 0.736403 -1.176235 -0.000000 -0.000000 0.000000 -0.312309 6.541369 -0.138285 2.410650 -23.937590 -70.743602 -0.000009 -28.978932 -0.000013 -0.000000 -0.000002 0.000002 1.214485 3.440477 -3.148853 -2.396342 25.828270 74.905756 0.000002 27.528758 0.000021 0.000002 -0.000000 0.000001 -8.559786 3.257499 2.340576 25.768827 9.642847 0.321670 -15.090739 3.040587 -3.032732 -0.494911 0.000010 0.000000 0.000000 0.000001 -0.000000 -8.377166 -13.891365 -6.210513 19.240631 -4.317912 -1.769900 -7.962056 -4.224570 7.610731 -0.000014 0.000004 -0.000002 0.000000 0.000001 0.000000 
1.274058 95.661766 0.976188 -1.886906 0.103869 -1.638886 1.175737 0.017040 -0.158478 1.428860 -2.211237 -0.090785 1.433918 -2.207699 -0.035891 -1.680143 0.729058 -1.047760 -1.698329 0.700102 -1.064722 -0.000000 0.000000 0.000000 -0.296504 6.132638 0.096324 2.402468 -23.551759 -71.048591 0.000009 -28.904449 -0.000008 0.000001 0.000002 0.000000 1.289599 3.770662 -2.936184 -2.189593 25.705856 74.728389 -0.000000 27.676792 -0.000007 0.000002 -0.000002 0.000002 -8.731449 2.985560 2.339071 26.344431 9.840334 0.275944 -15.432522 3.054701 -3.051479 -0.485651 -0.000001 -0.000004 0.000000 -0.000001 -0.000000 -8.521173 -13.965739 -6.237889 19.711274 -4.250526 -1.834548 -8.216053 -4.272440 7.726045 -0.000023 -0.000004 0.000001 -0.000000 -0.000001 0.000000 
1.356646 95.580444 1.012089 -1.932450 0.142440 -1.712242 1.196421 0.040421 -0.191178 1.468005 -2.176577 -0.130900 1.474867 -2.172943 -0.074676 -1.463938 0.687955 -0.930586 -1.482337 0.662447 -0.945492 -0.000000 -0.000000 -0.000000 -0.276782 5.704141 0.351819 2.402302 -23.160068 -71.402955 0.000012 -28.834607 -0.000004 0.000002 -0.000000 0.000000 1.374959 4.157229 -2.694414 -1.961780 25.541701 74.495453 0.000032 27.833781 -0.000016 0.000003 0.000001 0.000000 -8.923182 2.815624 2.352015 26.937925 9.946791 0.248189 -15.782243 3.075664 -3.068442 -0.472087 -0.000001 -0.000001 0.000000 0.000001 0.000000 -8.701812 -14.056158 -6.273097 20.239785 -4.177722 -1.902118 -8.501974 -4.303493 7.833527 -0.000020 0.000004 0.000000 -0.000000 0.000001 0.000001 
1.424572 95.496719 1.045677 -1.973117 0.175216 -1.771138 1.213452 0.059216 -0.220572 1.500634 -2.153688 -0.169304 1.509129 -2.150145 -0.111839 -1.247166 0.651432 -0.822748 -1.265772 0.628921 -0.835784 -0.000000 -0.000000 -0.000000 -0.254589 5.312757 0.569133 2.428939 -22.826279 -71.727976 0.000020 -28.775775 -0.000001 -0.000000 -0.000001 0.000001 1.465822 4.574360 -2.438896 -1.724616 25.372814 74.218591 0.000006 27.996256 0.000012 0.000001 -0.000000 0.000001 -9.120726 2.742505 2.376234 27.519020 9.962077 0.227668 -16.124687 3.103711 -3.074638 -0.458823 0.000020 -0.000002 0.000000 -0.000001 -0.000000 -8.907051 -14.128137 -6.317601 20.804182 -4.128371 -1.965781 -8.808448 -4.321841 7.933803 -0.000010 0.000001 0.000001 0.000000 0.000001 0.000000 
1.476638 95.412369 1.076953 -2.007144 0.202842 -1.813190 1.225915 0.072282 -0.247140 1.526058 -2.144111 -0.207761 1.536017 -2.140923 -0.149174 -1.032974 0.622547 -0.732865 -1.051735 0.602325 -0.744332 -0.000000 0.000000 -0.000000 -0.231809 4.980819 0.714112 2.491413 -22.589751 -71.970543 -0.000001 -28.729903 -0.000005 -0.000003 -0.000001 0.000001 1.561285 5.009205 -2.171939 -1.478047 25.229588 73.890872 -0.000015 28.169959 0.000036 -0.000000 -0.000001 0.000001 -9.318892 2.744943 2.409356 28.075557 9.906840 0.208456 -16.452780 3.133234 -3.071026 -0.450305 -0.000005 0.000002 -0.000000 0.000001 -0.000000 -9.127415 -14.150321 -6.367463 21.388853 -4.131361 -2.018847 -9.127131 -4.329600 8.028198 -0.000025 0.000006 -0.000002 -0.000000 -0.000002 0.000000 
1.512661 95.328033 1.105494 -2.033740 0.224241 -1.841460 1.233478 0.080353 -0.272744 1.544230 -2.145296 -0.249007 1.555608 -2.142714 -0.189455 -0.821985 0.600789 -0.658766 -0.840856 0.582269 -0.668939 -0.000000 0.000000 -0.000000 -0.209082 4.690009 0.791454 2.585812 -22.447837 -72.124926 -0.000019 -28.693717 -0.000001 0.000000 -0.000001 0.000000 1.663321 5.463717 -1.885883 -1.215261 25.125908 73.493880 0.000006 28.364944 0.000003 -0.000000 0.000000 -0.000001 -9.518552 2.804768 2.451679 28.608666 9.801180 0.191130 -16.766304 3.158641 -3.062974 -0.446320 -0.000007 -0.000001 0.000000 -0.000001 -0.000000 -9.358608 -14.114416 -6.416794 21.986328 -4.200009 -2.058896 -9.453815 -4.320443 8.117999 0.000003 0.000001 -0.000003 0.000001 0.000001 0.000000 
